<svg id="visual" viewBox="0 0 540 960" width="540" height="960" xmlns="http://www.w3.org/2000/svg" xmlns:xlink="http://www.w3.org/1999/xlink" version="1.1"><rect x="0" y="0" width="540" height="960" fill="#ffffff"></rect><path d="M0 335L30 334.2C60 333.3 120 331.7 180 357C240 382.3 300 434.7 360 434.3C420 434 480 381 510 354.5L540 328L540 961L510 961C480 961 420 961 360 961C300 961 240 961 180 961C120 961 60 961 30 961L0 961Z" fill="#ffffff"></path><path d="M0 347L30 352.5C60 358 120 369 180 395.2C240 421.3 300 462.7 360 461.8C420 461 480 418 510 396.5L540 375L540 961L510 961C480 961 420 961 360 961C300 961 240 961 180 961C120 961 60 961 30 961L0 961Z" fill="#f5faf9"></path><path d="M0 409L30 413.3C60 417.7 120 426.3 180 444.8C240 463.3 300 491.7 360 496.8C420 502 480 484 510 475L540 466L540 961L510 961C480 961 420 961 360 961C300 961 240 961 180 961C120 961 60 961 30 961L0 961Z" fill="#ecf6f3"></path><path d="M0 576L30 570.3C60 564.7 120 553.3 180 534.8C240 516.3 300 490.7 360 473.3C420 456 480 447 510 442.5L540 438L540 961L510 961C480 961 420 961 360 961C300 961 240 961 180 961C120 961 60 961 30 961L0 961Z" fill="#e2f1ec"></path><path d="M0 516L30 538.3C60 560.7 120 605.3 180 606.3C240 607.3 300 564.7 360 539.8C420 515 480 508 510 504.5L540 501L540 961L510 961C480 961 420 961 360 961C300 961 240 961 180 961C120 961 60 961 30 961L0 961Z" fill="#d8ede6"></path><path d="M0 612L30 601.5C60 591 120 570 180 573.8C240 577.7 300 606.3 360 610.5C420 614.7 480 594.3 510 584.2L540 574L540 961L510 961C480 961 420 961 360 961C300 961 240 961 180 961C120 961 60 961 30 961L0 961Z" fill="#cfe8e0"></path><path d="M0 612L30 628.2C60 644.3 120 676.7 180 694.5C240 712.3 300 715.7 360 710.3C420 705 480 691 510 684L540 677L540 961L510 961C480 961 420 961 360 961C300 961 240 961 180 961C120 961 60 961 30 961L0 961Z" fill="#c5e4da"></path><path d="M0 693L30 703.5C60 714 120 735 180 731.3C240 727.7 300 699.3 360 696.3C420 693.3 480 715.7 510 726.8L540 738L540 961L510 961C480 961 420 961 360 961C300 961 240 961 180 961C120 961 60 961 30 961L0 961Z" fill="#bbdfd4"></path><path d="M0 765L30 769.3C60 773.7 120 782.3 180 787.7C240 793 300 795 360 780.8C420 766.7 480 736.3 510 721.2L540 706L540 961L510 961C480 961 420 961 360 961C300 961 240 961 180 961C120 961 60 961 30 961L0 961Z" fill="#b2dace"></path><path d="M0 790L30 794.5C60 799 120 808 180 803.2C240 798.3 300 779.7 360 773.2C420 766.7 480 772.3 510 775.2L540 778L540 961L510 961C480 961 420 961 360 961C300 961 240 961 180 961C120 961 60 961 30 961L0 961Z" fill="#a8d5c8"></path><path d="M0 850L30 846.2C60 842.3 120 834.7 180 831C240 827.3 300 827.7 360 829.8C420 832 480 836 510 838L540 840L540 961L510 961C480 961 420 961 360 961C300 961 240 961 180 961C120 961 60 961 30 961L0 961Z" fill="#9ed1c2"></path><path d="M0 897L30 891.5C60 886 120 875 180 870C240 865 300 866 360 871.7C420 877.3 480 887.7 510 892.8L540 898L540 961L510 961C480 961 420 961 360 961C300 961 240 961 180 961C120 961 60 961 30 961L0 961Z" fill="#94ccbc"></path></svg>