<svg id="visual" viewBox="0 0 2560 1440" width="2560" height="1440" xmlns="http://www.w3.org/2000/svg" xmlns:xlink="http://www.w3.org/1999/xlink" version="1.1"><path d="M0 255L61 263.7C122 272.3 244 289.7 365.8 289.8C487.7 290 609.3 273 731.2 277.8C853 282.7 975 309.3 1097 314.7C1219 320 1341 304 1463 290.8C1585 277.7 1707 267.3 1828.8 263C1950.7 258.7 2072.3 260.3 2194.2 268.3C2316 276.3 2438 290.7 2499 297.8L2560 305L2560 0L2499 0C2438 0 2316 0 2194.2 0C2072.3 0 1950.7 0 1828.8 0C1707 0 1585 0 1463 0C1341 0 1219 0 1097 0C975 0 853 0 731.2 0C609.3 0 487.7 0 365.8 0C244 0 122 0 61 0L0 0Z" fill="#94ccbc"></path><path d="M0 277L61 280.8C122 284.7 244 292.3 365.8 285.8C487.7 279.3 609.3 258.7 731.2 262.8C853 267 975 296 1097 305.8C1219 315.7 1341 306.3 1463 299C1585 291.7 1707 286.3 1828.8 278.3C1950.7 270.3 2072.3 259.7 2194.2 253.7C2316 247.7 2438 246.3 2499 245.7L2560 245L2560 0L2499 0C2438 0 2316 0 2194.2 0C2072.3 0 1950.7 0 1828.8 0C1707 0 1585 0 1463 0C1341 0 1219 0 1097 0C975 0 853 0 731.2 0C609.3 0 487.7 0 365.8 0C244 0 122 0 61 0L0 0Z" fill="#9bd1c2"></path><path d="M0 255L61 252.3C122 249.7 244 244.3 365.8 247.7C487.7 251 609.3 263 731.2 266.2C853 269.3 975 263.7 1097 264.3C1219 265 1341 272 1463 274.3C1585 276.7 1707 274.3 1828.8 271.2C1950.7 268 2072.3 264 2194.2 258.5C2316 253 2438 246 2499 242.5L2560 239L2560 0L2499 0C2438 0 2316 0 2194.2 0C2072.3 0 1950.7 0 1828.8 0C1707 0 1585 0 1463 0C1341 0 1219 0 1097 0C975 0 853 0 731.2 0C609.3 0 487.7 0 365.8 0C244 0 122 0 61 0L0 0Z" fill="#a2d6c7"></path><path d="M0 254L61 246.5C122 239 244 224 365.8 216.5C487.7 209 609.3 209 731.2 212.7C853 216.3 975 223.7 1097 221.2C1219 218.7 1341 206.3 1463 207.8C1585 209.3 1707 224.7 1828.8 226.3C1950.7 228 2072.3 216 2194.2 210C2316 204 2438 204 2499 204L2560 204L2560 0L2499 0C2438 0 2316 0 2194.2 0C2072.3 0 1950.7 0 1828.8 0C1707 0 1585 0 1463 0C1341 0 1219 0 1097 0C975 0 853 0 731.2 0C609.3 0 487.7 0 365.8 0C244 0 122 0 61 0L0 0Z" fill="#a9dbcd"></path><path d="M0 171L61 175.3C122 179.7 244 188.3 365.8 189.3C487.7 190.3 609.3 183.7 731.2 184.3C853 185 975 193 1097 196.2C1219 199.3 1341 197.7 1463 202.7C1585 207.7 1707 219.3 1828.8 220.2C1950.7 221 2072.3 211 2194.2 205.7C2316 200.3 2438 199.7 2499 199.3L2560 199L2560 0L2499 0C2438 0 2316 0 2194.2 0C2072.3 0 1950.7 0 1828.8 0C1707 0 1585 0 1463 0C1341 0 1219 0 1097 0C975 0 853 0 731.2 0C609.3 0 487.7 0 365.8 0C244 0 122 0 61 0L0 0Z" fill="#b0e0d2"></path><path d="M0 170L61 169.5C122 169 244 168 365.8 172.7C487.7 177.3 609.3 187.7 731.2 183C853 178.3 975 158.7 1097 149.2C1219 139.7 1341 140.3 1463 142.7C1585 145 1707 149 1828.8 151.3C1950.7 153.7 2072.3 154.3 2194.2 159.3C2316 164.3 2438 173.7 2499 178.3L2560 183L2560 0L2499 0C2438 0 2316 0 2194.2 0C2072.3 0 1950.7 0 1828.8 0C1707 0 1585 0 1463 0C1341 0 1219 0 1097 0C975 0 853 0 731.2 0C609.3 0 487.7 0 365.8 0C244 0 122 0 61 0L0 0Z" fill="#b7e5d8"></path><path d="M0 142L61 138.7C122 135.3 244 128.7 365.8 130.2C487.7 131.7 609.3 141.3 731.2 147C853 152.7 975 154.3 1097 148.7C1219 143 1341 130 1463 125.3C1585 120.7 1707 124.3 1828.8 126C1950.7 127.7 2072.3 127.3 2194.2 130C2316 132.7 2438 138.3 2499 141.2L2560 144L2560 0L2499 0C2438 0 2316 0 2194.2 0C2072.3 0 1950.7 0 1828.8 0C1707 0 1585 0 1463 0C1341 0 1219 0 1097 0C975 0 853 0 731.2 0C609.3 0 487.7 0 365.8 0C244 0 122 0 61 0L0 0Z" fill="#beeade"></path><path d="M0 96L61 99.8C122 103.7 244 111.3 365.8 112.8C487.7 114.3 609.3 109.7 731.2 112.2C853 114.7 975 124.3 1097 125.3C1219 126.3 1341 118.7 1463 114.2C1585 109.7 1707 108.3 1828.8 107.8C1950.7 107.3 2072.3 107.7 2194.2 113C2316 118.3 2438 128.7 2499 133.8L2560 139L2560 0L2499 0C2438 0 2316 0 2194.2 0C2072.3 0 1950.7 0 1828.8 0C1707 0 1585 0 1463 0C1341 0 1219 0 1097 0C975 0 853 0 731.2 0C609.3 0 487.7 0 365.8 0C244 0 122 0 61 0L0 0Z" fill="#c5efe4"></path><path d="M0 99L61 96.3C122 93.7 244 88.3 365.8 89.5C487.7 90.7 609.3 98.3 731.2 99.7C853 101 975 96 1097 94.3C1219 92.7 1341 94.3 1463 91.8C1585 89.3 1707 82.7 1828.8 81.3C1950.7 80 2072.3 84 2194.2 88C2316 92 2438 96 2499 98L2560 100L2560 0L2499 0C2438 0 2316 0 2194.2 0C2072.3 0 1950.7 0 1828.8 0C1707 0 1585 0 1463 0C1341 0 1219 0 1097 0C975 0 853 0 731.2 0C609.3 0 487.7 0 365.8 0C244 0 122 0 61 0L0 0Z" fill="#cdf5e9"></path><path d="M0 48L61 49.7C122 51.3 244 54.7 365.8 54.8C487.7 55 609.3 52 731.2 49.8C853 47.7 975 46.3 1097 50.8C1219 55.3 1341 65.7 1463 67.7C1585 69.7 1707 63.3 1828.8 59C1950.7 54.7 2072.3 52.3 2194.2 55.2C2316 58 2438 66 2499 70L2560 74L2560 0L2499 0C2438 0 2316 0 2194.2 0C2072.3 0 1950.7 0 1828.8 0C1707 0 1585 0 1463 0C1341 0 1219 0 1097 0C975 0 853 0 731.2 0C609.3 0 487.7 0 365.8 0C244 0 122 0 61 0L0 0Z" fill="#d4faef"></path><path d="M0 39L61 39.5C122 40 244 41 365.8 41.2C487.7 41.3 609.3 40.7 731.2 38.8C853 37 975 34 1097 35C1219 36 1341 41 1463 42.2C1585 43.3 1707 40.7 1828.8 39.2C1950.7 37.7 2072.3 37.3 2194.2 36.5C2316 35.7 2438 34.3 2499 33.7L2560 33L2560 0L2499 0C2438 0 2316 0 2194.2 0C2072.3 0 1950.7 0 1828.8 0C1707 0 1585 0 1463 0C1341 0 1219 0 1097 0C975 0 853 0 731.2 0C609.3 0 487.7 0 365.8 0C244 0 122 0 61 0L0 0Z" fill="#dbfff5"></path></svg>