<svg id="visual" viewBox="0 0 2560 1440" width="2560" height="1440" xmlns="http://www.w3.org/2000/svg" xmlns:xlink="http://www.w3.org/1999/xlink" version="1.1"><path d="M0 199L47.3 192.2C94.7 185.3 189.3 171.7 284.2 170.2C379 168.7 474 179.3 568.8 170.5C663.7 161.7 758.3 133.3 853.2 125C948 116.7 1043 128.3 1137.8 120.8C1232.7 113.3 1327.3 86.7 1422.2 81C1517 75.3 1612 90.7 1706.8 113.2C1801.7 135.7 1896.3 165.3 1991.2 184.7C2086 204 2181 213 2275.8 201.3C2370.7 189.7 2465.3 157.3 2512.7 141.2L2560 125L2560 0L2512.7 0C2465.3 0 2370.7 0 2275.8 0C2181 0 2086 0 1991.2 0C1896.3 0 1801.7 0 1706.8 0C1612 0 1517 0 1422.2 0C1327.3 0 1232.7 0 1137.8 0C1043 0 948 0 853.2 0C758.3 0 663.7 0 568.8 0C474 0 379 0 284.2 0C189.3 0 94.7 0 47.3 0L0 0Z" fill="#ffffff"></path><path d="M0 216L47.3 214.2C94.7 212.3 189.3 208.7 284.2 197.3C379 186 474 167 568.8 161.5C663.7 156 758.3 164 853.2 161.5C948 159 1043 146 1137.8 140.8C1232.7 135.7 1327.3 138.3 1422.2 151.7C1517 165 1612 189 1706.8 187.2C1801.7 185.3 1896.3 157.7 1991.2 164C2086 170.3 2181 210.7 2275.8 204.5C2370.7 198.3 2465.3 145.7 2512.7 119.3L2560 93L2560 0L2512.7 0C2465.3 0 2370.7 0 2275.8 0C2181 0 2086 0 1991.2 0C1896.3 0 1801.7 0 1706.8 0C1612 0 1517 0 1422.2 0C1327.3 0 1232.7 0 1137.8 0C1043 0 948 0 853.2 0C758.3 0 663.7 0 568.8 0C474 0 379 0 284.2 0C189.3 0 94.7 0 47.3 0L0 0Z" fill="#f5faf9"></path><path d="M0 196L47.3 196.5C94.7 197 189.3 198 284.2 176C379 154 474 109 568.8 112.7C663.7 116.3 758.3 168.7 853.2 191.8C948 215 1043 209 1137.8 181.2C1232.7 153.3 1327.3 103.7 1422.2 87.3C1517 71 1612 88 1706.8 90.7C1801.7 93.3 1896.3 81.7 1991.2 80.8C2086 80 2181 90 2275.8 109.5C2370.7 129 2465.3 158 2512.7 172.5L2560 187L2560 0L2512.7 0C2465.3 0 2370.7 0 2275.8 0C2181 0 2086 0 1991.2 0C1896.3 0 1801.7 0 1706.8 0C1612 0 1517 0 1422.2 0C1327.3 0 1232.7 0 1137.8 0C1043 0 948 0 853.2 0C758.3 0 663.7 0 568.8 0C474 0 379 0 284.2 0C189.3 0 94.7 0 47.3 0L0 0Z" fill="#ecf6f3"></path><path d="M0 78L47.3 92.7C94.7 107.3 189.3 136.7 284.2 134.3C379 132 474 98 568.8 82C663.7 66 758.3 68 853.2 86C948 104 1043 138 1137.8 148.5C1232.7 159 1327.3 146 1422.2 145.2C1517 144.3 1612 155.7 1706.8 143C1801.7 130.3 1896.3 93.7 1991.2 88.2C2086 82.7 2181 108.3 2275.8 116.8C2370.7 125.3 2465.3 116.7 2512.7 112.3L2560 108L2560 0L2512.7 0C2465.3 0 2370.7 0 2275.8 0C2181 0 2086 0 1991.2 0C1896.3 0 1801.7 0 1706.8 0C1612 0 1517 0 1422.2 0C1327.3 0 1232.7 0 1137.8 0C1043 0 948 0 853.2 0C758.3 0 663.7 0 568.8 0C474 0 379 0 284.2 0C189.3 0 94.7 0 47.3 0L0 0Z" fill="#e2f1ec"></path><path d="M0 151L47.3 133.8C94.7 116.7 189.3 82.3 284.2 69.3C379 56.3 474 64.7 568.8 71.3C663.7 78 758.3 83 853.2 78.8C948 74.7 1043 61.3 1137.8 62.5C1232.7 63.7 1327.3 79.3 1422.2 101.8C1517 124.3 1612 153.7 1706.8 154.7C1801.7 155.7 1896.3 128.3 1991.2 109.3C2086 90.3 2181 79.7 2275.8 72.3C2370.7 65 2465.3 61 2512.7 59L2560 57L2560 0L2512.7 0C2465.3 0 2370.7 0 2275.8 0C2181 0 2086 0 1991.2 0C1896.3 0 1801.7 0 1706.8 0C1612 0 1517 0 1422.2 0C1327.3 0 1232.7 0 1137.8 0C1043 0 948 0 853.2 0C758.3 0 663.7 0 568.8 0C474 0 379 0 284.2 0C189.3 0 94.7 0 47.3 0L0 0Z" fill="#d8ede6"></path><path d="M0 84L47.3 90.7C94.7 97.3 189.3 110.7 284.2 104.8C379 99 474 74 568.8 62.5C663.7 51 758.3 53 853.2 67.7C948 82.3 1043 109.7 1137.8 117.3C1232.7 125 1327.3 113 1422.2 110.2C1517 107.3 1612 113.7 1706.8 114C1801.7 114.3 1896.3 108.7 1991.2 105.5C2086 102.3 2181 101.7 2275.8 111.5C2370.7 121.3 2465.3 141.7 2512.7 151.8L2560 162L2560 0L2512.7 0C2465.3 0 2370.7 0 2275.8 0C2181 0 2086 0 1991.2 0C1896.3 0 1801.7 0 1706.8 0C1612 0 1517 0 1422.2 0C1327.3 0 1232.7 0 1137.8 0C1043 0 948 0 853.2 0C758.3 0 663.7 0 568.8 0C474 0 379 0 284.2 0C189.3 0 94.7 0 47.3 0L0 0Z" fill="#cfe8e0"></path><path d="M0 69L47.3 78.3C94.7 87.7 189.3 106.3 284.2 112C379 117.7 474 110.3 568.8 94.5C663.7 78.7 758.3 54.3 853.2 54.5C948 54.7 1043 79.3 1137.8 83.7C1232.7 88 1327.3 72 1422.2 78.3C1517 84.7 1612 113.3 1706.8 121C1801.7 128.7 1896.3 115.3 1991.2 106C2086 96.7 2181 91.3 2275.8 93.7C2370.7 96 2465.3 106 2512.7 111L2560 116L2560 0L2512.7 0C2465.3 0 2370.7 0 2275.8 0C2181 0 2086 0 1991.2 0C1896.3 0 1801.7 0 1706.8 0C1612 0 1517 0 1422.2 0C1327.3 0 1232.7 0 1137.8 0C1043 0 948 0 853.2 0C758.3 0 663.7 0 568.8 0C474 0 379 0 284.2 0C189.3 0 94.7 0 47.3 0L0 0Z" fill="#c5e4da"></path><path d="M0 61L47.3 62.7C94.7 64.3 189.3 67.7 284.2 67.8C379 68 474 65 568.8 67.3C663.7 69.7 758.3 77.3 853.2 73.5C948 69.7 1043 54.3 1137.8 57.3C1232.7 60.3 1327.3 81.7 1422.2 79.7C1517 77.7 1612 52.3 1706.8 41.8C1801.7 31.3 1896.3 35.7 1991.2 49.2C2086 62.7 2181 85.3 2275.8 99.7C2370.7 114 2465.3 120 2512.7 123L2560 126L2560 0L2512.7 0C2465.3 0 2370.7 0 2275.8 0C2181 0 2086 0 1991.2 0C1896.3 0 1801.7 0 1706.8 0C1612 0 1517 0 1422.2 0C1327.3 0 1232.7 0 1137.8 0C1043 0 948 0 853.2 0C758.3 0 663.7 0 568.8 0C474 0 379 0 284.2 0C189.3 0 94.7 0 47.3 0L0 0Z" fill="#bbdfd4"></path><path d="M0 20L47.3 24.8C94.7 29.7 189.3 39.3 284.2 45.8C379 52.3 474 55.7 568.8 58.2C663.7 60.7 758.3 62.3 853.2 58.8C948 55.3 1043 46.7 1137.8 40C1232.7 33.3 1327.3 28.7 1422.2 35.7C1517 42.7 1612 61.3 1706.8 68.2C1801.7 75 1896.3 70 1991.2 62.8C2086 55.7 2181 46.3 2275.8 51.3C2370.7 56.3 2465.3 75.7 2512.7 85.3L2560 95L2560 0L2512.7 0C2465.3 0 2370.7 0 2275.8 0C2181 0 2086 0 1991.2 0C1896.3 0 1801.7 0 1706.8 0C1612 0 1517 0 1422.2 0C1327.3 0 1232.7 0 1137.8 0C1043 0 948 0 853.2 0C758.3 0 663.7 0 568.8 0C474 0 379 0 284.2 0C189.3 0 94.7 0 47.3 0L0 0Z" fill="#b2dace"></path><path d="M0 35L47.3 33C94.7 31 189.3 27 284.2 27.2C379 27.3 474 31.7 568.8 36.8C663.7 42 758.3 48 853.2 53.2C948 58.3 1043 62.7 1137.8 62.3C1232.7 62 1327.3 57 1422.2 50.2C1517 43.3 1612 34.7 1706.8 39.8C1801.7 45 1896.3 64 1991.2 73.3C2086 82.7 2181 82.3 2275.8 82.3C2370.7 82.3 2465.3 82.7 2512.7 82.8L2560 83L2560 0L2512.7 0C2465.3 0 2370.7 0 2275.8 0C2181 0 2086 0 1991.2 0C1896.3 0 1801.7 0 1706.8 0C1612 0 1517 0 1422.2 0C1327.3 0 1232.7 0 1137.8 0C1043 0 948 0 853.2 0C758.3 0 663.7 0 568.8 0C474 0 379 0 284.2 0C189.3 0 94.7 0 47.3 0L0 0Z" fill="#a8d5c8"></path><path d="M0 22L47.3 21C94.7 20 189.3 18 284.2 24.7C379 31.3 474 46.7 568.8 47.7C663.7 48.7 758.3 35.3 853.2 33.5C948 31.7 1043 41.3 1137.8 47.3C1232.7 53.3 1327.3 55.7 1422.2 54.8C1517 54 1612 50 1706.8 49.8C1801.7 49.7 1896.3 53.3 1991.2 48.7C2086 44 2181 31 2275.8 26.7C2370.7 22.3 2465.3 26.7 2512.7 28.8L2560 31L2560 0L2512.7 0C2465.3 0 2370.7 0 2275.8 0C2181 0 2086 0 1991.2 0C1896.3 0 1801.7 0 1706.8 0C1612 0 1517 0 1422.2 0C1327.3 0 1232.7 0 1137.8 0C1043 0 948 0 853.2 0C758.3 0 663.7 0 568.8 0C474 0 379 0 284.2 0C189.3 0 94.7 0 47.3 0L0 0Z" fill="#9ed1c2"></path><path d="M0 40L47.3 39.5C94.7 39 189.3 38 284.2 37.8C379 37.7 474 38.3 568.8 36.7C663.7 35 758.3 31 853.2 30.5C948 30 1043 33 1137.8 34.8C1232.7 36.7 1327.3 37.3 1422.2 36.5C1517 35.7 1612 33.3 1706.8 33.8C1801.7 34.3 1896.3 37.7 1991.2 35.2C2086 32.7 2181 24.3 2275.8 21.8C2370.7 19.3 2465.3 22.7 2512.7 24.3L2560 26L2560 0L2512.7 0C2465.3 0 2370.7 0 2275.8 0C2181 0 2086 0 1991.2 0C1896.3 0 1801.7 0 1706.8 0C1612 0 1517 0 1422.2 0C1327.3 0 1232.7 0 1137.8 0C1043 0 948 0 853.2 0C758.3 0 663.7 0 568.8 0C474 0 379 0 284.2 0C189.3 0 94.7 0 47.3 0L0 0Z" fill="#94ccbc"></path></svg>