<svg id="visual" viewBox="0 0 2560 1440" width="2560" height="1440" xmlns="http://www.w3.org/2000/svg" xmlns:xlink="http://www.w3.org/1999/xlink" version="1.1"><g><g transform="translate(2260 390)"><path d="M0 -156.6L100.7 -120L154.3 -27.2L135.7 78.3L53.6 147.2L-53.6 147.2L-135.7 78.3L-154.3 -27.2L-100.7 -120Z" fill="none" stroke="#297EA6" stroke-width="2"></path></g><g transform="translate(167 713)"><path d="M0 -21L13.5 -16.1L20.7 -3.6L18.2 10.5L7.2 19.7L-7.2 19.7L-18.2 10.5L-20.7 -3.6L-13.5 -16.1Z" fill="none" stroke="#297EA6" stroke-width="2"></path></g><g transform="translate(837 780)"><path d="M0 -78L50.1 -59.8L76.8 -13.5L67.5 39L26.7 73.3L-26.7 73.3L-67.5 39L-76.8 -13.5L-50.1 -59.8Z" fill="none" stroke="#297EA6" stroke-width="2"></path></g><g transform="translate(301 122)"><path d="M0 -127L81.6 -97.3L125.1 -22.1L110 63.5L43.4 119.3L-43.4 119.3L-110 63.5L-125.1 -22.1L-81.6 -97.3Z" fill="none" stroke="#297EA6" stroke-width="2"></path></g><g transform="translate(1302 1146)"><path d="M0 -35L22.5 -26.8L34.5 -6.1L30.3 17.5L12 32.9L-12 32.9L-30.3 17.5L-34.5 -6.1L-22.5 -26.8Z" fill="none" stroke="#297EA6" stroke-width="2"></path></g><g transform="translate(2427 1367)"><path d="M0 -86L55.3 -65.9L84.7 -14.9L74.5 43L29.4 80.8L-29.4 80.8L-74.5 43L-84.7 -14.9L-55.3 -65.9Z" fill="none" stroke="#297EA6" stroke-width="2"></path></g><g transform="translate(1578 394)"><path d="M0 -21L13.5 -16.1L20.7 -3.6L18.2 10.5L7.2 19.7L-7.2 19.7L-18.2 10.5L-20.7 -3.6L-13.5 -16.1Z" fill="none" stroke="#297EA6" stroke-width="2"></path></g><g transform="translate(1650 1222)"><path d="M0 -114L73.3 -87.3L112.3 -19.8L98.7 57L39 107.1L-39 107.1L-98.7 57L-112.3 -19.8L-73.3 -87.3Z" fill="none" stroke="#297EA6" stroke-width="2"></path></g><g transform="translate(1934 865)"><path d="M0 -51L32.8 -39.1L50.2 -8.9L44.2 25.5L17.4 47.9L-17.4 47.9L-44.2 25.5L-50.2 -8.9L-32.8 -39.1Z" fill="none" stroke="#297EA6" stroke-width="2"></path></g><g transform="translate(1285 679)"><path d="M0 -67L43.1 -51.3L66 -11.6L58 33.5L22.9 63L-22.9 63L-58 33.5L-66 -11.6L-43.1 -51.3Z" fill="none" stroke="#297EA6" stroke-width="2"></path></g></g></svg>