<svg id="visual" viewBox="0 0 2560 1440" width="2560" height="1440" xmlns="http://www.w3.org/2000/svg" xmlns:xlink="http://www.w3.org/1999/xlink" version="1.1"><g><g transform="translate(1234 534)"><path d="M0 -164.1L105.5 -125.7L161.6 -28.5L142.1 82.1L56.1 154.2L-56.1 154.2L-142.1 82.1L-161.6 -28.5L-105.5 -125.7Z" fill="none" stroke="#297EA6" stroke-width="2"></path></g><g transform="translate(2362 741)"><path d="M0 -77L49.5 -59L75.8 -13.4L66.7 38.5L26.3 72.4L-26.3 72.4L-66.7 38.5L-75.8 -13.4L-49.5 -59Z" fill="none" stroke="#297EA6" stroke-width="2"></path></g><g transform="translate(2346 172)"><path d="M0 -93L59.8 -71.2L91.6 -16.1L80.5 46.5L31.8 87.4L-31.8 87.4L-80.5 46.5L-91.6 -16.1L-59.8 -71.2Z" fill="none" stroke="#297EA6" stroke-width="2"></path></g><g transform="translate(614 1209)"><path d="M0 -71L45.6 -54.4L69.9 -12.3L61.5 35.5L24.3 66.7L-24.3 66.7L-61.5 35.5L-69.9 -12.3L-45.6 -54.4Z" fill="none" stroke="#297EA6" stroke-width="2"></path></g><g transform="translate(2366 1259)"><path d="M0 -105L67.5 -80.4L103.4 -18.2L90.9 52.5L35.9 98.7L-35.9 98.7L-90.9 52.5L-103.4 -18.2L-67.5 -80.4Z" stroke="#297EA6" fill="none" stroke-width="2"></path></g><g transform="translate(765 653)"><path d="M0 -23L14.8 -17.6L22.7 -4L19.9 11.5L7.9 21.6L-7.9 21.6L-19.9 11.5L-22.7 -4L-14.8 -17.6Z" stroke="#297EA6" fill="none" stroke-width="2"></path></g><g transform="translate(597 269)"><path d="M0 -107L68.8 -82L105.4 -18.6L92.7 53.5L36.6 100.5L-36.6 100.5L-92.7 53.5L-105.4 -18.6L-68.8 -82Z" stroke="#297EA6" fill="none" stroke-width="2"></path></g><g transform="translate(1933 797)"><path d="M0 -149L95.8 -114.1L146.7 -25.9L129 74.5L51 140L-51 140L-129 74.5L-146.7 -25.9L-95.8 -114.1Z" stroke="#297EA6" fill="none" stroke-width="2"></path></g><g transform="translate(1168 1082)"><path d="M0 -91L58.5 -69.7L89.6 -15.8L78.8 45.5L31.1 85.5L-31.1 85.5L-78.8 45.5L-89.6 -15.8L-58.5 -69.7Z" stroke="#297EA6" fill="none" stroke-width="2"></path></g><g transform="translate(1814 313)"><path d="M0 -59L37.9 -45.2L58.1 -10.2L51.1 29.5L20.2 55.4L-20.2 55.4L-51.1 29.5L-58.1 -10.2L-37.9 -45.2Z" stroke="#297EA6" fill="none" stroke-width="2"></path></g></g></svg>